<?xml version="1.0" encoding="UTF-8"?>
<svg width="1200pt" height="1200pt" version="1.1" viewBox="0 0 1200 1200" fill="white" xmlns="http://www.w3.org/2000/svg">
 <path d="m210.94 412.5h-46.875v-169.03c0-43.781 35.625-79.359 79.359-79.359l169.08-0.046875v46.875h-169.03c-17.906 0-32.531 14.578-32.531 32.531zm745.6-248.44h-169.03v46.875h169.03c17.906 0 32.531 14.578 32.531 32.531v169.03h46.875v-169.03c0-43.781-35.625-79.406-79.406-79.406zm-745.6 792.47v-169.03h-46.875v169.03c0 43.781 35.625 79.359 79.359 79.359l169.08 0.046875v-46.875h-169.03c-17.953 0-32.531-14.578-32.531-32.531zm778.13 0c0 17.906-14.578 32.531-32.531 32.531h-169.03v46.875h169.03c43.781 0 79.359-35.625 79.359-79.359l0.046875-169.08h-46.875zm-389.06-683.53-252.66 117.89 252.66 117.89 252.66-117.89zm-296.11 201.1v303.56l272.68 127.22v-355.31l-272.68-127.22zm592.18 0v-51.75l-272.63 127.22v355.31l272.63-127.22z"/>
</svg>
